<?xml version="1.0" encoding="utf-8"?>
<!-- Generator: Adobe Illustrator 21.0.2, SVG Export Plug-In . SVG Version: 6.00 Build 0)  -->
<svg version="1.1" id="Layer_1" xmlns="http://www.w3.org/2000/svg" xmlns:xlink="http://www.w3.org/1999/xlink" x="0px" y="0px"
	 viewBox="0 0 124.5 84" style="enable-background:new 0 0 124.5 84;" xml:space="preserve">
<path d="M119.8,14.7c-13.1-1.2-14.5-0.3-14.5-0.3C98.9,26,91.1,42.8,91.1,42.8c0,2.6-4.1,4.6-4.1,4.6c1.5,2.9-0.9,7.3-0.9,7.3
	c-1.2,2.6,0.9,19.7,0.9,19.7c1.5,3.5,2.9,3.2,2.9,3.2c5.2,3.2-0.9,2.3-0.9,2.3c2.9,1.5,3.5,3.5,3.5,3.5c-4.9,1.5-7-0.6-7-0.6
	c-2.3-4.6-4.9-7.5-4.9-7.5c0.3-4.9-0.6-21.5-0.6-21.5c-1.2-2-1.2-7.3-1.2-7.3c-13.6,1.2-20.6-7.5-20.6-7.5
	c-9.3-5.5-16.8-2.3-16.8-2.3C41.5,54.2,27,60.5,27,60.5l0.3,11.9c4.9,1.2,3.5,2.6,3.5,2.6c-3.5,1.5-7,0-7,0l-0.3-10.4l-4.9,3.8
	c-0.9,2.3,0.3,10.2,0.3,10.2c6.1,1.5,3.2,2.3,3.2,2.3c-1.5,1.5-6.7,0.9-6.7,0.9C16,78.8,14.2,69,14.2,69c-1.2-2.6,0.9-4.6,0.9-4.6
	c2.3-1.7,6.4-6.7,6.4-6.7c-0.9,1.5-6.1,2.6-6.1,2.6c-9,2-15.4-6.4-15.4-6.4c11,7.3,15.1,3.8,15.1,3.8c8.1-0.9,10.2-9.9,10.2-9.9
	c-1.7-3.5-1.7-10.2-1.7-10.2C23.2,23.7,40,20.5,40,20.5l25.2-0.3c12.2-3.2,18.3,0.3,18.3,0.3L101,4.2c0,0-1.2-4.9,4.4-4.1l2,0.3
	c0,0,1.5-1.7,2.3,1.5c0,0,4.4,1.5,6.4,5.5c0,0,4.4,2.6,8.1,3.2c0,0,1.5,2-2.3,3.8C118.1,16.1,119.8,14.7,119.8,14.7z"/>
</svg>
