<?xml version="1.0" encoding="utf-8"?>
<!-- Generator: Adobe Illustrator 21.0.2, SVG Export Plug-In . SVG Version: 6.00 Build 0)  -->
<svg version="1.1" id="Layer_1" xmlns="http://www.w3.org/2000/svg" xmlns:xlink="http://www.w3.org/1999/xlink" x="0px" y="0px"
	 viewBox="0 0 125.3 125" style="enable-background:new 0 0 125.3 125;" xml:space="preserve">
<style type="text/css">
	.st0{fill:none;stroke:#000000;stroke-width:4;stroke-miterlimit:10;}
</style>
<g>
	<rect x="28.8" y="2" class="st0" width="94.5" height="64.2"/>
	<circle cx="18.8" cy="37" r="16.3"/>
	<path d="M90.4,30L78.2,51.2c-0.3,0.5-1,0.7-1.5,0.4l0,0c-0.5-0.3-0.7-1-0.4-1.5l12.2-21.2c0.3-0.5,1-0.7,1.5-0.4l0,0
		C90.5,28.8,90.7,29.5,90.4,30z"/>
	<path d="M2.8,125L0,67.7c0,0,5.1-16.9,35.1-8.1l22,12.6l11.4-18.4c0,0,11.1-6.8,9.6,5.3L63.4,83.6c0,0-3.8,3.5-7.8-0.3L36.6,75
		l1.5,49.8L2.8,125z"/>
</g>
</svg>
