<svg enable-background="new 0 0 124.8 113.6" viewBox="0 0 124.8 113.6" xmlns="http://www.w3.org/2000/svg"><circle cx="71.3" cy="89.6" fill="none" r="21.8" stroke="#000" stroke-miterlimit="10" stroke-width="4"/><path d="m23.2 113c-1.4 0-2.5-1.1-2.5-2.5v-83.8c0-1.4 1.1-2.5 2.5-2.5 1.4 0 2.5 1.1 2.5 2.5v83.9c-.1 1.3-1.2 2.4-2.5 2.4z"/><path d="m102 105.6c-1.4 0-2.5-1.1-2.5-2.5v-55.4c0-1.4 1.1-2.5 2.5-2.5 1.4 0 2.5 1.1 2.5 2.5v55.5c-.1 1.3-1.2 2.4-2.5 2.4z"/><circle cx="70.7" cy="20.8" r="8.4"/><path d="m59.4 32.8h21.6v19h-21.6z"/><path d="m59.4 32.8-8.5-5.2 5.2-13.4s1.1-1.7-.2-2.1l18.4-9.8s2.2-2.2-1.6-2.2l-19 8.6-3.6-.2s-1.3.9-1.5 2.9l-5.5 15.6s-.7 4 2.5 5.8l13.8 8.4z"/><path d="m81 32.8 11.6-.2 8.4-5.3s.9-1.1 0-2.4l-10-18.4s.4-2.2 2-.5l12.5 18.9 2.5-.4s4 3.8.7 6.5l-14.5 9.5-13.4.2z"/><path d="m38.6 61.5h-28c-1.4 0-2.6-1.2-2.6-2.6 0-1.4 1.2-2.6 2.6-2.6h28c1.4 0 2.6 1.2 2.6 2.6 0 1.4-1.1 2.6-2.6 2.6z"/><path d="m38.6 79.5h-28c-1.4 0-2.6-1.2-2.6-2.6 0-1.4 1.2-2.6 2.6-2.6h28c1.4 0 2.6 1.2 2.6 2.6 0 1.4-1.1 2.6-2.6 2.6z"/><path d="m11.5 60h26v16.5h-26z"/><path d="m45.2 38.8c-17.7-16.3-45.2-11.8-45.2-11.8z"/><path d="m124.8 49.3c-31.8-4.3-41.6 9.5-41.6 9.5z"/><path d="m86.8 64.5 7.2-2.2v9z"/><path d="m81.5 62.8c-29.3-7.8-36.5 18-36.5 18l-.2-10.2h-7.8l-.5-5.6h18.2v-6.2h28.5z"/><path d="m81 61h-26.3c-1.4 0-2.5-1.1-2.5-2.5 0-1.4 1.1-2.5 2.5-2.5h26.3c1.4 0 2.5 1.1 2.5 2.5 0 1.4-1.1 2.5-2.5 2.5z"/><path d="m44.4 96.3-13 13c-1 1-1 2.6 0 3.5 1 1 2.6 1 3.5 0l12.3-12.3c-1.2-1.2-2.3-2.6-2.8-4.2z"/><path d="m120.7 109.6-18.7-18.8c.4 2.2 1.1 4.4-.1 6.3l15.7 15.7c.9.9 2.3.9 3.2 0 .8-.9.8-2.4-.1-3.2z"/></svg>