<svg enable-background="new 0 0 99.6 125.7" viewBox="0 0 99.6 125.7" xmlns="http://www.w3.org/2000/svg"><g stroke="#000" stroke-miterlimit="10"><path d="m15.8 74.4v-15l-13.8-49s1-7.5 5.5-8.2 9.2 1 10.2 4.2l16.5 58.2v-24s3-5.8 8.2-5.8 9 4.2 9.8 6.8l-1.2 27" fill="#fff" stroke-width="4"/><path d="m40 83.9c3.1.9 6.3-.3 8.8-2.4s4.3-5.1 4.4-7.9c.2-5.5-6-8-6-8h-25l-14.4 21.3 12.2 36.8h53l10-27.8 1-16.5 13.5-62.5s-.5-5.5-6.5-7.2c0 0-9.5.8-10 5.2l-15 61.3v3s-3 8-9 8-10.5-6.8-10.5-6.8" fill="#fff" stroke-width="4"/><g fill="none" stroke-width="3"><path d="m66.8 71.7.8-27.2s-2.2-5.2-7.5-5.8-8.8 6.2-8.8 6.2"/><path d="m28.3 82.4s26.2-2 26.5 23.5"/></g></g></svg>