<svg enable-background="new 0 0 124.6 93.8" viewBox="0 0 124.6 93.8" xmlns="http://www.w3.org/2000/svg"><path d="m118.1 76.2h-71.5c-2.8 0-5-2.2-5-5v-45.8c0-2.8 2.2-5 5-5h71.5c2.8 0 5 2.2 5 5v45.8c0 2.8-2.3 5-5 5z" fill="none" stroke="#000" stroke-miterlimit="10" stroke-width="3"/><path d="m122.2 75.1h-79.6l-1-9.2h81.5z"/><g stroke="#000" stroke-miterlimit="10"><path d="m115 70.7h-9.5c-.6 0-1.2.5-1.2 1.2 0 .6.5 1.2 1.2 1.2h9.5c.6 0 1.2-.5 1.2-1.2 0-.7-.5-1.2-1.2-1.2z" fill="#fff"/><path d="m79.6 39.8-14.1 4.9v1.9l13.7 5.4" fill="none" stroke-width="3"/><path d="m93.5 52 14.1-4.8v-1.9l-13.7-5.5" fill="none" stroke-width="3"/><path d="m89.7 33.3-6.6 24.2" fill="none" stroke-width="3"/></g><path d="m34.5 3.7-2.7-1.6s-12.8 8.2-12 20.9c0 0 .3 6.8 1.6 7.9 0 0-1.1 9 5.6 9.8 0 0-1.8 2.2 6.3 10 0 0 0 4.8-5.8 6 0 0-24 6-25.5 10.8 0 0-4 2.8-1 16.8 0 0 37.8 21.8 80.8 0l.5-13.6s-1.5-5.6-6.2-7.6c0 0-11-4.8-25.7-8.5l-.2-4s5.8-3 7.2-10.2c0 0 6-2.2 5-9.5 0 0 5-9.5-1.8-20.8 0 0-5-11.2-24-9.8z"/></svg>