<?xml version="1.0" encoding="utf-8"?>
<!-- Generator: Adobe Illustrator 21.0.2, SVG Export Plug-In . SVG Version: 6.00 Build 0)  -->
<svg version="1.1" id="Layer_1" xmlns="http://www.w3.org/2000/svg" xmlns:xlink="http://www.w3.org/1999/xlink" x="0px" y="0px"
	 viewBox="0 0 124.6 93.8" style="enable-background:new 0 0 124.6 93.8;" xml:space="preserve">
<style type="text/css">
	.st0{fill:none;stroke:#000000;stroke-width:3;stroke-miterlimit:10;}
	.st1{fill:#FFFFFF;stroke:#000000;stroke-miterlimit:10;}
</style>
<g>
	<path class="st0" d="M118.1,76.2H46.6c-2.8,0-5-2.2-5-5V25.4c0-2.8,2.2-5,5-5h71.5c2.8,0,5,2.2,5,5v45.8
		C123.1,74,120.8,76.2,118.1,76.2z"/>
	<polygon points="122.2,75.1 42.6,75.1 41.6,65.9 123.1,65.9 	"/>
	<path class="st1" d="M115,70.7h-9.5c-0.6,0-1.2,0.5-1.2,1.2l0,0c0,0.6,0.5,1.2,1.2,1.2h9.5c0.6,0,1.2-0.5,1.2-1.2l0,0
		C116.2,71.2,115.7,70.7,115,70.7z"/>
	<polyline class="st0" points="79.6,39.8 65.5,44.7 65.5,46.6 79.2,52 	"/>
	<polyline class="st0" points="93.5,52 107.6,47.2 107.6,45.3 93.9,39.8 	"/>
	<line class="st0" x1="89.7" y1="33.3" x2="83.1" y2="57.5"/>
	<path d="M34.5,3.7l-2.7-1.6c0,0-12.8,8.2-12,20.9c0,0,0.3,6.8,1.6,7.9c0,0-1.1,9,5.6,9.8c0,0-1.8,2.2,6.3,10c0,0,0,4.8-5.8,6
		c0,0-24,6-25.5,10.8c0,0-4,2.8-1,16.8c0,0,37.8,21.8,80.8,0l0.5-13.6c0,0-1.5-5.6-6.2-7.6c0,0-11-4.8-25.7-8.5l-0.2-4
		c0,0,5.8-3,7.2-10.2c0,0,6-2.2,5-9.5c0,0,5-9.5-1.8-20.8c0,0-5-11.2-24-9.8L34.5,3.7z"/>
</g>
</svg>
