<?xml version="1.0" encoding="utf-8"?>
<!-- Generator: Adobe Illustrator 21.0.2, SVG Export Plug-In . SVG Version: 6.00 Build 0)  -->
<svg version="1.1" id="Layer_1" xmlns="http://www.w3.org/2000/svg" xmlns:xlink="http://www.w3.org/1999/xlink" x="0px" y="0px"
	 viewBox="0 0 125.7 127.5" style="enable-background:new 0 0 125.7 127.5;" xml:space="preserve">
<style type="text/css">
	.st0{fill:none;stroke:#000000;stroke-width:10;stroke-miterlimit:10;}
</style>
<g>
	<ellipse cx="48.7" cy="37.1" rx="4.5" ry="7.5"/>
	<ellipse cx="67.7" cy="37.1" rx="4.5" ry="7.5"/>
	<path class="st0" d="M89.3,20.7c0,0-22.4-34.9-53.1-0.6l-8,22.4c0,0-22.4,8-23,31.3c0,0,22.4-5.1,20.1,24.9c0,0,20.5,2.9,21.1,14.4
		c0,0,17.6,20.8,31.3,0.6c0,0,8-13.1,16-12.2c0,0,7-1,10.2-20.1c0,0,5.8-4.5,15.7-2.9c0,0,8.3-30.1-21.4-35.2L89.3,20.7z"/>
</g>
</svg>
