<?xml version="1.0" encoding="utf-8"?>
<!-- Generator: Adobe Illustrator 21.0.2, SVG Export Plug-In . SVG Version: 6.00 Build 0)  -->
<svg version="1.1" id="Layer_1" xmlns="http://www.w3.org/2000/svg" xmlns:xlink="http://www.w3.org/1999/xlink" x="0px" y="0px"
	 viewBox="0 0 99.6 125.7" style="enable-background:new 0 0 99.6 125.7;" xml:space="preserve">
<style type="text/css">
	.st0{fill:#FFFFFF;stroke:#000000;stroke-width:4;stroke-miterlimit:10;}
	.st1{fill:none;stroke:#000000;stroke-width:3;stroke-miterlimit:10;}
</style>
<g>
	<path class="st0" d="M15.8,74.4v-15L2,10.4c0,0,1-7.5,5.5-8.2s9.2,1,10.2,4.2l16.5,58.2v-24c0,0,3-5.8,8.2-5.8s9,4.2,9.8,6.8
		l-1.2,27"/>
	<path class="st0" d="M40,83.9c3.1,0.9,6.3-0.3,8.8-2.4c2.5-2.1,4.3-5.1,4.4-7.9c0.2-5.5-6-8-6-8h-25L7.8,86.9L20,123.7h53l10-27.8
		l1-16.5l13.5-62.5c0,0-0.5-5.5-6.5-7.2c0,0-9.5,0.8-10,5.2L66,76.2v3c0,0-3,8-9,8s-10.5-6.8-10.5-6.8"/>
	<path class="st1" d="M66.8,71.7l0.8-27.2c0,0-2.2-5.2-7.5-5.8s-8.8,6.2-8.8,6.2"/>
	<path class="st1" d="M28.3,82.4c0,0,26.2-2,26.5,23.5"/>
</g>
</svg>
