<svg enable-background="new 0 0 124.5 84" viewBox="0 0 124.5 84" xmlns="http://www.w3.org/2000/svg"><path d="m119.8 14.7c-13.1-1.2-14.5-.3-14.5-.3-6.4 11.6-14.2 28.4-14.2 28.4 0 2.6-4.1 4.6-4.1 4.6 1.5 2.9-.9 7.3-.9 7.3-1.2 2.6.9 19.7.9 19.7 1.5 3.5 2.9 3.2 2.9 3.2 5.2 3.2-.9 2.3-.9 2.3 2.9 1.5 3.5 3.5 3.5 3.5-4.9 1.5-7-.6-7-.6-2.3-4.6-4.9-7.5-4.9-7.5.3-4.9-.6-21.5-.6-21.5-1.2-2-1.2-7.3-1.2-7.3-13.6 1.2-20.6-7.5-20.6-7.5-9.3-5.5-16.8-2.3-16.8-2.3.1 17.5-14.4 23.8-14.4 23.8l.3 11.9c4.9 1.2 3.5 2.6 3.5 2.6-3.5 1.5-7 0-7 0l-.3-10.4-4.9 3.8c-.9 2.3.3 10.2.3 10.2 6.1 1.5 3.2 2.3 3.2 2.3-1.5 1.5-6.7.9-6.7.9.6-3-1.2-12.8-1.2-12.8-1.2-2.6.9-4.6.9-4.6 2.3-1.7 6.4-6.7 6.4-6.7-.9 1.5-6.1 2.6-6.1 2.6-9 2-15.4-6.4-15.4-6.4 11 7.3 15.1 3.8 15.1 3.8 8.1-.9 10.2-9.9 10.2-9.9-1.7-3.5-1.7-10.2-1.7-10.2-.4-13.9 16.4-17.1 16.4-17.1l25.2-.3c12.2-3.2 18.3.3 18.3.3l17.5-16.3s-1.2-4.9 4.4-4.1l2 .3s1.5-1.7 2.3 1.5c0 0 4.4 1.5 6.4 5.5 0 0 4.4 2.6 8.1 3.2 0 0 1.5 2-2.3 3.8-3.8 1.7-2.1.3-2.1.3z"/></svg>