<?xml version="1.0" encoding="utf-8"?>
<!-- Generator: Adobe Illustrator 21.0.2, SVG Export Plug-In . SVG Version: 6.00 Build 0)  -->
<svg version="1.1" id="Layer_1" xmlns="http://www.w3.org/2000/svg" xmlns:xlink="http://www.w3.org/1999/xlink" x="0px" y="0px"
	 viewBox="0 0 124.8 113.6" style="enable-background:new 0 0 124.8 113.6;" xml:space="preserve">
<style type="text/css">
	.st0{fill:none;stroke:#000000;stroke-width:4;stroke-miterlimit:10;}
</style>
<g>
	<circle class="st0" cx="71.3" cy="89.6" r="21.8"/>
	<path d="M23.2,113L23.2,113c-1.4,0-2.5-1.1-2.5-2.5V26.7c0-1.4,1.1-2.5,2.5-2.5h0c1.4,0,2.5,1.1,2.5,2.5v83.9
		C25.6,111.9,24.5,113,23.2,113z"/>
	<path d="M102,105.6L102,105.6c-1.4,0-2.5-1.1-2.5-2.5V47.7c0-1.4,1.1-2.5,2.5-2.5l0,0c1.4,0,2.5,1.1,2.5,2.5v55.5
		C104.4,104.5,103.3,105.6,102,105.6z"/>
	<circle cx="70.7" cy="20.8" r="8.4"/>
	<rect x="59.4" y="32.8" width="21.6" height="19"/>
	<path d="M59.4,32.8l-8.5-5.2l5.2-13.4c0,0,1.1-1.7-0.2-2.1l18.4-9.8c0,0,2.2-2.2-1.6-2.2L53.7,8.7l-3.6-0.2c0,0-1.3,0.9-1.5,2.9
		l-5.5,15.6c0,0-0.7,4,2.5,5.8l13.8,8.4L59.4,32.8z"/>
	<path d="M81,32.8l11.6-0.2l8.4-5.3c0,0,0.9-1.1,0-2.4L91,6.5c0,0,0.4-2.2,2-0.5l12.5,18.9l2.5-0.4c0,0,4,3.8,0.7,6.5l-14.5,9.5
		l-13.4,0.2L81,32.8z"/>
	<path d="M38.6,61.5h-28c-1.4,0-2.6-1.2-2.6-2.6v0c0-1.4,1.2-2.6,2.6-2.6h28c1.4,0,2.6,1.2,2.6,2.6v0C41.2,60.3,40.1,61.5,38.6,61.5
		z"/>
	<path d="M38.6,79.5h-28c-1.4,0-2.6-1.2-2.6-2.6v0c0-1.4,1.2-2.6,2.6-2.6h28c1.4,0,2.6,1.2,2.6,2.6v0C41.2,78.3,40.1,79.5,38.6,79.5
		z"/>
	<rect x="11.5" y="60" width="26" height="16.5"/>
	<path d="M45.2,38.8C27.5,22.5,0,27,0,27L45.2,38.8z"/>
	<path d="M124.8,49.3C93,45,83.2,58.8,83.2,58.8L124.8,49.3z"/>
	<polygon points="86.8,64.5 94,62.3 94,71.3 	"/>
	<path d="M81.5,62.8C52.2,55,45,80.8,45,80.8l-0.2-10.2H37L36.5,65h18.2v-6.2h28.5L81.5,62.8z"/>
	<path d="M81,61H54.7c-1.4,0-2.5-1.1-2.5-2.5v0c0-1.4,1.1-2.5,2.5-2.5H81c1.4,0,2.5,1.1,2.5,2.5v0C83.5,59.9,82.4,61,81,61z"/>
	<path d="M44.4,96.3l-13,13c-1,1-1,2.6,0,3.5c1,1,2.6,1,3.5,0l12.3-12.3C46,99.3,44.9,97.9,44.4,96.3z"/>
	<path d="M120.7,109.6L102,90.8c0.4,2.2,1.1,4.4-0.1,6.3l15.7,15.7c0.9,0.9,2.3,0.9,3.2,0C121.6,111.9,121.6,110.4,120.7,109.6z"/>
</g>
</svg>
